<?xml version="1.0" encoding="UTF-8"?>
<svg id="Layer_2" data-name="Layer 2" xmlns="http://www.w3.org/2000/svg" viewBox="0 0 595.99 584.62">
  <g id="Layer_1-2" data-name="Layer 1">
    <path d="M595.99,525.08h-61.54v59.53h-10.7v-59.53H68.9v59.53h-10.7v-59.53H6.69v-10.03h51.5V71.57H0v-10.7h58.19V0h10.7v60.87h454.85V0h10.7v60.87h54.85v10.7h-54.85v443.48h61.54v10.03ZM387.96,428.09c12.93,0,23.96-4.71,33.11-14.14,9.13-9.43,13.71-20.66,13.71-33.69s-4.58-24.25-13.71-33.67c-9.15-9.43-20.18-14.15-33.11-14.15h-221.41v-96.99h229.43c10.7,0,19.84-3.75,27.42-11.27,7.58-7.51,11.37-16.58,11.37-27.19s-3.79-20.34-11.37-27.85c-7.59-7.52-16.72-11.28-27.42-11.28H68.9v270.23h319.06ZM520.4,434.79c-7.14,16.96-17.17,31.92-30.1,44.86-12.94,12.94-28.32,23.43-46.15,31.46l-9.36,4.01h88.96v-87.7c-.9,2.68-2.01,5.13-3.34,7.37ZM447.49,72.91c16.49,6.69,30.99,16.17,43.48,28.43,12.48,12.27,22.29,26.65,29.43,43.14,1.34,2.24,2.45,4.46,3.34,6.69v-79.6h-78.93l2.68,1.34ZM497.66,286.64c11.59,14.37,20.29,29.64,26.09,45.8v-90.24c-.45.45-.67,1.12-.67,2.01-5.8,15.27-14.28,29.41-25.42,42.43Z" style="fill: #facc15; stroke-width: 0px;"/>
  </g>
</svg>