<?xml version="1.0" encoding="UTF-8"?>
<svg id="Layer_2" data-name="Layer 2" xmlns="http://www.w3.org/2000/svg" viewBox="0 0 1685.43 584.62">
  <g id="Layer_1-2" data-name="Layer 1">
    <g>
      <path d="M1685.43,525.08h-62.88v59.53h-12.04v-59.53h-438.13v59.53h-10.7v-59.53h-51.51v-10.03h51.51V71.57h-58.19v-10.7h58.19V0h10.7v60.87h438.13V0h12.04v60.87h56.19v10.7h-56.19v443.48h62.88v10.03ZM1472.05,235.45c11.14,0,20.51-3.75,28.09-11.27,7.58-7.51,11.37-16.81,11.37-27.86s-3.79-19.67-11.37-27.18c-7.59-7.52-16.95-11.28-28.09-11.28h-208.7v77.59h208.7ZM1263.36,332.44v182.61h234.78l-118.4-182.61h-116.39ZM1607.84,196.66c0,16.95-2.91,33.01-8.7,48.16-5.8,15.16-13.83,28.66-24.08,40.47-10.26,11.82-22.3,21.74-36.12,29.77-13.83,8.03-28.76,13.38-44.82,16.05l116.39,179.93V71.57h-86.96l4.68,2.01c16.05,7.14,29.99,16.84,41.81,29.1,11.81,12.27,21.07,26.42,27.76,42.47,6.69,16.05,10.03,33.22,10.03,51.5Z" style="fill: #f7f7f7; stroke-width: 0px;"/>
      <path d="M630.77,525.08h-62.88v59.53h-10.7v-59.53H72.91v59.53h-10.7v-59.53H6.69v-10.03h55.52V71.57H0v-10.7h62.21V0h10.7v60.87h484.28V0h10.7v60.87h56.19v10.7h-56.19v443.48h62.88v10.03ZM176.59,71.57h-103.68v125.75c8.92-65.99,43.48-107.91,103.68-125.75ZM166.56,274.25h296.32v-54.85c0-41.02-27.21-61.54-81.61-61.54h-133.11c-54.41,0-81.61,20.52-81.61,61.54v54.85ZM462.88,371.24H166.56v143.81h296.32v-143.81ZM557.19,202.68V71.57h-105.02c61.98,18.29,96.99,61.99,105.02,131.1Z" style="fill: #f7f7f7; stroke-width: 0px;"/>
      <path d="M1165.76,525.08h-61.54v59.53h-10.7v-59.53h-454.85v59.53h-10.7v-59.53h-51.51v-10.03h51.51V71.57h-58.19v-10.7h58.19V0h10.7v60.87h454.85V0h10.7v60.87h54.85v10.7h-54.85v443.48h61.54v10.03ZM957.73,428.09c12.93,0,23.96-4.71,33.11-14.14,9.13-9.43,13.71-20.66,13.71-33.69s-4.58-24.25-13.71-33.67c-9.15-9.43-20.18-14.15-33.11-14.15h-221.4v-96.99h229.43c10.7,0,19.84-3.75,27.42-11.27,7.58-7.51,11.37-16.58,11.37-27.19s-3.79-20.34-11.37-27.85c-7.59-7.52-16.72-11.28-27.42-11.28h-327.09v270.23h319.06ZM1090.17,434.79c-7.14,16.96-17.17,31.92-30.1,44.86-12.94,12.94-28.32,23.43-46.15,31.46l-9.36,4.01h88.96v-87.7c-.9,2.68-2.01,5.13-3.34,7.37ZM1017.26,72.91c16.49,6.69,30.99,16.17,43.48,28.43,12.48,12.27,22.29,26.65,29.43,43.14,1.34,2.24,2.45,4.46,3.34,6.69v-79.6h-78.93l2.68,1.34ZM1067.43,286.64c11.59,14.37,20.29,29.64,26.09,45.8v-90.24c-.45.45-.67,1.12-.67,2.01-5.8,15.27-14.28,29.41-25.42,42.43Z" style="fill: #facc15; stroke-width: 0px;"/>
    </g>
  </g>
</svg>